:FULLY-SPECIFIED
:DEGREES
645
root 3.93083 16.2801 -2.97853 214.642 -92.9438 -208.699
lowerback 1.48337 0.695708 0.297063
upperback 1.1512 0.919732 0.731785
thorax 0.339479 0.454842 0.57157
lowerneck -18.4755 -2.50249 -2.15164
upperneck 18.5457 -3.97933 4.66067
head 9.00822 -1.54032 1.42126
rclavicle -1.98785e-014 -8.29926e-015
rhumerus -27.9481 1.32766 -84.5651
rradius 25.7983
rwrist 24.5981
rhand -26.965 1.84763
rfingers 7.12502
rthumb -0.386275 -28.1318
lclavicle -1.98785e-014 -8.29926e-015
lhumerus -28.4997 8.12899 87.2464
lradius 17.9947
lwrist -18.6055
lhand -25.7274 1.88686
lfingers 7.12502
lthumb 0.809063 31.8651
rfemur 13.5047 8.46173 30.7844
rtibia 3.49861e-014
rfoot -12.0066 -17.8011
rtoes -13.167
lfemur -32.0613 -12.5774 -17.5262
ltibia 28.6952
lfoot -6.86578 3.84313
ltoes -18.3393
646
root 3.90846 16.2822 -2.95833 214.154 -92.8436 -208.127
lowerback 1.26287 0.749854 0.214449
upperback 1.08655 0.991707 0.670903
thorax 0.395886 0.491215 0.55732
lowerneck -18.3836 -2.53484 -2.20515
upperneck 18.5612 -4.02527 4.71675
head 9.00119 -1.56139 1.44384
rclavicle -7.15625e-015 -1.4561e-014
rhumerus -28.224 0.785454 -84.5002
rradius 25.4103
rwrist 25.1235
rhand -27.03 1.76784
rfingers 7.12502
rthumb -0.449033 -28.2114
lclavicle -7.15625e-015 -1.4561e-014
lhumerus -28.5334 8.57675 87.0255
lradius 17.7032
lwrist -19.3177
lhand -25.7313 1.94425
lfingers 7.12502
lthumb 0.805237 31.9225
rfemur 13.8924 8.3087 30.6631
rtibia 2.8625e-014
rfoot -11.6795 -17.6484
rtoes -14.442
lfemur -31.8622 -12.6212 -17.7266
ltibia 29.0803
lfoot -6.83451 3.45109
ltoes -16.7563
647
root 3.88655 16.2935 -2.93696 211.266 -92.6879 -205.14
lowerback 1.06947 0.764643 -0.0408353
upperback 0.999157 1.01092 0.619702
thorax 0.41111 0.500304 0.6498
lowerneck -18.3375 -2.52785 -2.19494
upperneck 18.6439 -4.00673 4.63715
head 9.01843 -1.56095 1.4179
rclavicle 0 -7.95139e-016
rhumerus -28.5344 0.540326 -84.4554
rradius 25.0556
rwrist 25.438
rhand -26.947 1.63868
rfingers 7.12502
rthumb -0.368895 -28.3407
lclavicle 0 -7.95139e-016
lhumerus -28.6683 8.99016 86.9082
lradius 17.5393
lwrist -19.5048
lhand -25.8046 1.82485
lfingers 7.12502
lthumb 0.734452 31.8033
rfemur 14.2594 8.14981 30.3726
rtibia 1.59028e-014
rfoot -11.374 -17.377
rtoes -15.6004
lfemur -31.5808 -12.6502 -18.0893
ltibia 29.3882
lfoot -7.12156 2.92811
ltoes -15.8004
648
root 3.86666 16.3004 -2.91553 209.775 -92.5553 -203.49
lowerback 0.816273 0.809275 -0.161764
upperback 0.89425 1.07159 0.542343
thorax 0.444145 0.531041 0.640912
lowerneck -18.1949 -2.53254 -2.17807
upperneck 18.6 -4.01754 4.63237
head 8.97761 -1.5685 1.41299
rclavicle 2.22639e-014 4.96962e-016
rhumerus -28.8196 -0.0412271 -84.3475
rradius 24.5955
rwrist 26.023
rhand -26.8939 1.78126
rfingers 7.12502
rthumb -0.317661 -28.1982
lclavicle 2.22639e-014 4.96962e-016
lhumerus -28.7571 9.13287 86.8096
lradius 17.3635
lwrist -19.6361
lhand -25.8902 1.81169
lfingers 7.12502
lthumb 0.651769 31.7904
rfemur 14.5251 8.02164 30.1748
rtibia -2.8625e-014
rfoot -10.7438 -17.2354
rtoes -17.3487
lfemur -31.3795 -12.5892 -18.3678
ltibia 29.6352
lfoot -7.33682 2.67205
ltoes -15.0466
649
root 3.84569 16.3172 -2.89172 211.428 -92.4007 -205.042
lowerback 0.573679 0.87212 -0.1659
upperback 0.859083 1.15606 0.515084
thorax 0.543514 0.573488 0.618719
lowerneck -18.2205 -2.53173 -2.1942
upperneck 18.6445 -4.01047 4.61652
head 8.99716 -1.56723 1.41108
rclavicle -5.56597e-015 -7.25564e-015
rhumerus -29.0444 -0.496513 -84.2437
rradius 24.2115
rwrist 26.4915
rhand -26.8716 1.90551
rfingers 7.12502
rthumb -0.296098 -28.074
lclavicle -5.56597e-015 -7.25564e-015
lhumerus -28.7898 9.69209 86.5893
lradius 17.1603
lwrist -20.267
lhand -25.6809 1.74343
lfingers 7.12502
lthumb 0.85398 31.7215
rfemur 14.7969 7.97844 30.0605
rtibia 3.18055e-015
rfoot -10.0685 -16.944
rtoes -18.6403
lfemur -31.0204 -12.4527 -18.5175
ltibia 29.7373
lfoot -7.52006 2.67413
ltoes -14.3885
650
root 3.82734 16.3334 -2.86978 210.17 -92.1533 -203.682
lowerback 0.412679 0.945416 -0.397983
upperback 0.791422 1.25497 0.4695
thorax 0.559368 0.622268 0.704109
lowerneck -18.2795 -2.53311 -2.10572
upperneck 18.719 -4.01067 4.48608
head 9.02854 -1.57343 1.35153
rclavicle 1.90833e-014 0
rhumerus -29.3081 -0.97725 -84.1105
rradius 23.8791
rwrist 26.6924
rhand -26.6108 1.99408
rfingers 7.12502
rthumb -0.0441402 -27.9857
lclavicle 1.90833e-014 0
lhumerus -28.8531 10.0481 86.476
lradius 17.0044
lwrist -20.5861
lhand -25.7637 1.73824
lfingers 7.12502
lthumb 0.773936 31.7166
rfemur 12.0401 7.95308 29.8905
rtibia 6.09297
rfoot -12.3117 -17.078
rtoes -20.3632
lfemur -30.5719 -12.3089 -18.8251
ltibia 29.7364
lfoot -7.774 2.56667
ltoes -13.7648
651
root 3.80819 16.3554 -2.84605 210.619 -91.927 -204.054
lowerback 0.250301 0.988505 -0.506556
upperback 0.731199 1.31374 0.452812
thorax 0.585809 0.651448 0.750264
lowerneck -18.2488 -2.50404 -2.11823
upperneck 18.7593 -3.94935 4.3975
head 9.03265 -1.55545 1.33176
rclavicle -2.38542e-015 -3.03147e-015
rhumerus -29.5328 -1.55413 -83.8863
rradius 23.5037
rwrist 27.5891
rhand -26.211 2.00692
rfingers 7.12502
rthumb 0.341931 -27.9726
lclavicle -2.38542e-015 -3.03147e-015
lhumerus -28.9675 10.167 86.4983
lradius 16.9386
lwrist -20.5936
lhand -25.6287 1.82213
lfingers 7.12502
lthumb 0.904355 31.8
rfemur 10.4787 7.94532 29.6731
rtibia 9.74997
rfoot -13.184 -16.9841
rtoes -21.714
lfemur -29.99 -12.1463 -19.0859
ltibia 29.582
lfoot -7.98569 2.35063
ltoes -12.8155
652
root 3.78908 16.3832 -2.82024 211.071 -91.6686 -204.473
lowerback 0.117292 1.05814 -0.565311
upperback 0.703526 1.40815 0.371909
thorax 0.631071 0.69868 0.702998
lowerneck -18.3338 -2.48507 -2.05972
upperneck 18.8581 -3.94064 4.38032
head 9.08026 -1.54701 1.31687
rclavicle 6.36111e-015 8.94531e-015
rhumerus -29.7917 -2.00232 -83.8008
rradius 23.2328
rwrist 28.1145
rhand -25.8479 1.88495
rfingers 7.12502
rthumb 0.692671 -28.0937
lclavicle 6.36111e-015 8.94531e-015
lhumerus -29.1 10.2255 86.407
lradius 16.9647
lwrist -20.7494
lhand -25.5396 1.75984
lfingers 7.12502
lthumb 0.990434 31.7373
rfemur 9.16718 7.95808 29.3674
rtibia 12.9328
rfoot -13.6004 -16.8127
rtoes -23.1246
lfemur -29.3005 -12.0427 -19.3566
ltibia 29.2893
lfoot -8.17915 2.1776
ltoes -11.4679
653
root 3.7727 16.4112 -2.79665 212.208 -91.3932 -205.628
lowerback 0.116184 1.10446 -0.726039
upperback 0.645115 1.47064 0.371825
thorax 0.566893 0.729664 0.792336
lowerneck -18.2759 -2.44773 -2.02934
upperneck 18.9004 -3.86958 4.2438
head 9.07791 -1.52721 1.27507
rclavicle 9.54166e-015 2.33572e-015
rhumerus -30.0442 -2.29908 -83.6551
rradius 22.9474
rwrist 28.3698
rhand -25.5465 2.10264
rfingers 7.12502
rthumb 0.983794 -27.8748
lclavicle 9.54166e-015 2.33572e-015
lhumerus -29.2346 10.0017 86.5491
lradius 16.9386
lwrist -20.6088
lhand -25.5555 1.85855
lfingers 7.12502
lthumb 0.975091 31.8361
rfemur 7.93676 6.96203 28.8759
rtibia 15.9251
rfoot -13.8313 -15.6565
rtoes -24.6323
lfemur -28.4943 -11.8724 -19.645
ltibia 28.8928
lfoot -8.20136 2.09349
ltoes -10.2867
654
root 3.75881 16.4384 -2.77096 213.8 -91.1389 -207.231
lowerback 0.0859691 1.11328 -0.812613
upperback 0.613574 1.48309 0.354874
thorax 0.54958 0.735795 0.823727
lowerneck -18.3193 -2.36655 -1.97022
upperneck 18.9845 -3.7531 4.13558
head 9.10713 -1.47906 1.24353
rclavicle 6.36111e-015 -1.49089e-016
rhumerus -30.253 -2.65623 -83.5052
rradius 22.7374
rwrist 29.0198
rhand -25.2409 2.12089
rfingers 7.12502
rthumb 1.27887 -27.855
lclavicle 6.36111e-015 -1.49089e-016
lhumerus -29.3859 10.1126 86.5291
lradius 16.9679
lwrist -20.6778
lhand -25.2988 1.81222
lfingers 7.12502
lthumb 1.22298 31.7885
rfemur 6.6934 6.01174 28.3732
rtibia 18.8937
rfoot -13.9104 -14.4779
rtoes -25.5731
lfemur -27.6618 -11.7684 -19.9303
ltibia 28.3771
lfoot -8.07393 2.06792
ltoes -8.96746
655
root 3.74319 16.4687 -2.74325 209.848 -90.835 -203.356
lowerback 0.116388 1.13347 -0.987264
upperback 0.589743 1.51053 0.294779
thorax 0.504736 0.749246 0.859087
lowerneck -18.2714 -2.30757 -1.91028
upperneck 19.0303 -3.67226 4.04823
head 9.10844 -1.44722 1.21484
rclavicle 1.82882e-014 1.04362e-015
rhumerus -30.418 -3.03677 -83.3534
rradius 22.4597
rwrist 29.5152
rhand -24.8809 2.16781
rfingers 7.12502
rthumb 1.62656 -27.8057
lclavicle 1.82882e-014 1.04362e-015
lhumerus -29.5414 9.63436 86.7085
lradius 17.0523
lwrist -20.3014
lhand -25.3721 1.82939
lfingers 7.12502
lthumb 1.15214 31.806
rfemur 5.45747 4.91142 27.6912
rtibia 21.9367
rfoot -13.7518 -13.1714
rtoes -26.3588
lfemur -26.705 -11.7625 -20.3395
ltibia 27.7662
lfoot -7.76533 2.06641
ltoes -6.52345
656
root 3.7303 16.4968 -2.71584 204.052 -90.5409 -197.601
lowerback 0.104435 1.12001 -1.10171
upperback 0.575833 1.49326 0.235312
thorax 0.496265 0.740387 0.862357
lowerneck -18.2902 -2.19744 -1.81595
upperneck 19.1006 -3.52291 3.92954
head 9.12693 -1.38297 1.17839
rclavicle 1.19271e-014 1.49089e-016
rhumerus -30.5888 -3.09864 -83.3326
rradius 22.3759
rwrist 29.6148
rhand -24.4598 2.28745
rfingers 7.12502
rthumb 2.0333 -27.6826
lclavicle 1.19271e-014 1.49089e-016
lhumerus -29.6794 9.19457 86.883
lradius 17.1744
lwrist -20.0434
lhand -25.1936 1.9784
lfingers 7.12502
lthumb 1.32455 31.954
rfemur 4.1052 3.81417 27.0033
rtibia 25.0283
rfoot -13.3927 -11.8382
rtoes -26.9442
lfemur -25.7519 -11.7636 -20.734
ltibia 27.0788
lfoot -7.52326 2.11964
ltoes -5.3773
657
root 3.7206 16.5241 -2.68626 165.218 -90.3553 -158.777
lowerback 0.140225 1.06847 -1.3577
upperback 0.528573 1.42465 0.16847
thorax 0.424946 0.705904 0.935774
lowerneck -18.3144 -2.10092 -1.73915
upperneck 19.2142 -3.38464 3.78849
head 9.16192 -1.32744 1.13569
rclavicle -6.36111e-015 3.10601e-015
rhumerus -30.7559 -2.98339 -83.347
rradius 22.311
rwrist 29.6521
rhand -24.2308 2.14669
rfingers 7.12502
rthumb 2.25441 -27.8211
lclavicle -6.36111e-015 3.10601e-015
lhumerus -29.8202 8.54767 87.152
lradius 17.3218
lwrist -19.4967
lhand -24.9957 1.97813
lfingers 7.12502
lthumb 1.51576 31.9525
rfemur 2.65746 2.71563 26.1523
rtibia 28.1527
rfoot -12.739 -10.5244
rtoes -27.0888
lfemur -24.8502 -11.9276 -21.2306
ltibia 26.3338
lfoot -7.49714 2.29278
ltoes -4.50223
658
root 3.71053 16.5479 -2.65602 112.8 -90.3787 -106.415
lowerback 0.144389 1.03893 -1.52394
upperback 0.529806 1.38554 0.109071
thorax 0.422472 0.685764 0.967954
lowerneck -18.37 -1.98761 -1.64811
upperneck 19.3114 -3.2316 3.67396
head 9.1972 -1.26069 1.1015
rclavicle -5.1684e-015 1.26725e-015
rhumerus -30.8765 -3.10243 -83.268
rradius 22.2631
rwrist 29.8102
rhand -23.9837 2.29655
rfingers 7.12502
rthumb 2.49311 -27.6686
lclavicle -5.1684e-015 1.26725e-015
lhumerus -29.909 7.98656 87.3827
lradius 17.4289
lwrist -19.2412
lhand -24.9313 1.95932
lfingers 7.12502
lthumb 1.57794 31.9332
rfemur 1.23071 1.76572 25.3745
rtibia 31.2787
rfoot -11.7614 -9.35086
rtoes -27.4257
lfemur -23.8615 -12.0997 -21.6952
ltibia 25.5291
lfoot -7.44044 2.57809
ltoes -4.12856
